Run_20001
nRows=4
nColumns=164

# SIMM Motion File Header:
name Run_20001
datacolumns 164
datarows 4
otherdata 1
range 3.96666700 3.99166700
endheader
time	pelvis_tilt	pelvis_list	pelvis_rotation	pelvis_tx	pelvis_ty	pelvis_tz	hip_flexion_r	hip_adduction_r	hip_rotation_r	knee_angle_r	ankle_angle_r	hip_flexion_l	hip_adduction_l	hip_rotation_l	knee_angle_l	ankle_angle_l	lumbar_extension	lumbar_bending	lumbar_rotation	arm_flex_r	arm_add_r	arm_rot_r	elbow_flex_r	pro_sup_r	arm_flex_l	arm_add_l	arm_rot_l	elbow_flex_l	pro_sup_l	subtalar_angle_r	mtp_angle_r	subtalar_angle_l	mtp_angle_l	wrist_flex_r	wrist_dev_r	wrist_flex_l	wrist_dev_l	LASI_tx	LASI_ty	LASI_tz	RASI_tx	RASI_ty	RASI_tz	LPSI_tx	LPSI_ty	LPSI_tz	RPSI_tx	RPSI_ty	RPSI_tz	RTH1_tx	RTH1_ty	RTH1_tz	RTH2_tx	RTH2_ty	RTH2_tz	RTH3_tx	RTH3_ty	RTH3_tz	LTH1_tx	LTH1_ty	LTH1_tz	LTH2_tx	LTH2_ty	LTH2_tz	LTH3_tx	LTH3_ty	LTH3_tz	RTB1_tx	RTB1_ty	RTB1_tz	RTB2_tx	RTB2_ty	RTB2_tz	RTB3_tx	RTB3_ty	RTB3_tz	LTB1_tx	LTB1_ty	LTB1_tz	LTB2_tx	LTB2_ty	LTB2_tz	LTB3_tx	LTB3_ty	LTB3_tz	RCAL_tx	RCAL_ty	RCAL_tz	RTOE_tx	RTOE_ty	RTOE_tz	RMT5_tx	RMT5_ty	RMT5_tz	LCAL_tx	LCAL_ty	LCAL_tz	LTOE_tx	LTOE_ty	LTOE_tz	LMT5_tx	LMT5_ty	LMT5_tz	LACR_tx	LACR_ty	LACR_tz	RACR_tx	RACR_ty	RACR_tz	CLAV_tx	CLAV_ty	CLAV_tz	C7_tx	C7_ty	C7_tz	RUA1_tx	RUA1_ty	RUA1_tz	RUA2_tx	RUA2_ty	RUA2_tz	RUA3_tx	RUA3_ty	RUA3_tz	RLEL_tx	RLEL_ty	RLEL_tz	RMEL_tx	RMEL_ty	RMEL_tz	LUA1_tx	LUA1_ty	LUA1_tz	LUA2_tx	LUA2_ty	LUA2_tz	LUA3_tx	LUA3_ty	LUA3_tz	LLEL_tx	LLEL_ty	LLEL_tz	LMEL_tx	LMEL_ty	LMEL_tz	RFAsuperior_tx	RFAsuperior_ty	RFAsuperior_tz	RFAradius_tx	RFAradius_ty	RFAradius_tz	RFAulna_tx	RFAulna_ty	RFAulna_tz	LFAsuperior_tx	LFAsuperior_ty	LFAsuperior_tz	LFAradius_tx	LFAradius_ty	LFAradius_tz	LFAulna_tx	LFAulna_ty	LFAulna_tz
      3.96666700	     -1.24495450	     -4.16119944	     -3.38738389	      1.04580648	      1.01748951	     -0.30653387	     22.35287274	      9.47616006	      5.85696322	    -28.03673575	     -7.84103652	      0.36349152	      0.49215673	     -1.61026639	    -58.85047536	    -20.38001973	     -7.83453868	      6.39301891	     -1.14396998	    -41.13336225	     -9.52205648	    -10.60366920	     66.51606824	     61.83690071	    -30.18114121	    -19.19826191	      6.49456919	    119.37911228	     87.43573196	      0.00000000	      0.00000000	      0.00000000	      0.00000000	      0.00000000	      0.00000000	      0.00000000	      0.00000000	      1.05756352	      1.02261456	     -0.41891036	      1.04235965	      1.03663414	     -0.18866431	      0.88745863	      1.06116452	     -0.37190639	      0.87903881	      1.06086083	     -0.27296613	      1.01552578	      0.87619530	     -0.13409634	      1.12463324	      0.75084141	     -0.16121079	      1.08579557	      0.64700868	     -0.17940376	      0.99057654	      0.84547614	     -0.47715316	      1.04902329	      0.74045577	     -0.44390587	      0.96410033	      0.62280185	     -0.43781201	      1.17212922	      0.42430216	     -0.24472701	      1.12114368	      0.36824890	     -0.18178036	      1.14424785	      0.24563447	     -0.24980721	      0.89204983	      0.40250144	     -0.37385953	      0.78672563	      0.38665721	     -0.42229086	      0.71884998	      0.31185109	     -0.35814605	      1.01241949	      0.11498460	     -0.27507994	      1.21943422	      0.08131708	     -0.30172223	      1.20304259	      0.04536785	     -0.19729087	      0.56878756	      0.35772058	     -0.34590667	      0.61865282	      0.15977631	     -0.30755438	      0.57828442	      0.15351771	     -0.40904891	      1.03453031	      1.50988315	     -0.47740660	      1.00599385	      1.49091204	     -0.11874096	      1.08709774	      1.45201249	     -0.26780301	      0.98106225	      1.53633328	     -0.30906461	      0.95732729	      1.42532701	     -0.07112083	      0.93550197	      1.33790437	     -0.09074302	      0.85441748	      1.36465623	     -0.09269412	      0.78820445	      1.27148587	     -0.08116841	      0.78831420	      1.27492224	     -0.14725917	      1.00239729	      1.44555756	     -0.53535186	      0.93229665	      1.40469087	     -0.52372203	      0.98171060	      1.34597192	     -0.56774556	      0.89974162	      1.25872350	     -0.60918235	      0.85321669	      1.26125127	     -0.54964379	      0.83865913	      1.19603652	     -0.05547468	      0.89876465	      1.01660616	     -0.06804219	      0.83747260	      1.00352307	     -0.08934819	      0.97779886	      1.24218728	     -0.58241602	      1.11239676	      1.21656063	     -0.44683448	      1.10198941	      1.15282568	     -0.46292980
      3.97500000	     -0.48478313	     -4.35358827	     -3.39381918	      1.04589307	      1.01139243	     -0.30649571	     21.37219247	      9.97999017	      6.55365080	    -30.24935326	     -3.51740171	      1.05076930	      0.23329583	     -1.68984033	    -62.33189593	    -18.36100528	     -8.65066903	      6.72573577	     -0.60634466	    -40.30024115	     -9.95903531	    -10.10521789	     66.71843785	     62.03058672	    -31.00306327	    -19.05168905	      6.20878543	    117.96194650	     87.50275344	      0.00000000	      0.00000000	      0.00000000	      0.00000000	      0.00000000	      0.00000000	      0.00000000	      0.00000000	      1.05786172	      1.01611377	     -0.41909135	      1.04237673	      1.03074205	     -0.18807036	      0.88724261	      1.05251424	     -0.37192571	      0.87882519	      1.05250792	     -0.27268819	      1.01768938	      0.86939881	     -0.13454258	      1.12429220	      0.74345036	     -0.16326298	      1.08589237	      0.63970434	     -0.18051597	      0.99414553	      0.83784083	     -0.47668885	      1.05460348	      0.73451338	     -0.44448402	      0.97279648	      0.61516772	     -0.43788013	      1.16696159	      0.41596416	     -0.24758793	      1.11419001	      0.36200182	     -0.18453296	      1.13011086	      0.23841478	     -0.25199480	      0.90068201	      0.39823782	     -0.37445868	      0.79478164	      0.38651221	     -0.42284129	      0.72419046	      0.31412207	     -0.35909005	      0.99265722	      0.10842768	     -0.27482401	      1.20087715	      0.08045840	     -0.30191274	      1.18599796	      0.04571792	     -0.19693771	      0.57340088	      0.36388675	     -0.34781807	      0.62243737	      0.16572922	     -0.30972365	      0.58317637	      0.15983538	     -0.41142018	      1.03292952	      1.50337470	     -0.47693598	      1.00640229	      1.48307786	     -0.11758229	      1.08687573	      1.44505575	     -0.26746484	      0.98042313	      1.52982052	     -0.30812218	      0.95903343	      1.41618152	     -0.06953990	      0.93807813	      1.32840654	     -0.08918765	      0.85654642	      1.35394047	     -0.08900822	      0.79201258	      1.25996730	     -0.07705132	      0.79033748	      1.26387740	     -0.14321751	      0.99979576	      1.43951946	     -0.53454415	      0.92932746	      1.39972578	     -0.52207255	      0.97723209	      1.34017995	     -0.56644594	      0.89347125	      1.25495926	     -0.60770825	      0.84847756	      1.25741607	     -0.54758513	      0.84411509	      1.18516221	     -0.05277199	      0.90724292	      1.00717381	     -0.06747267	      0.84576318	      0.99336496	     -0.08742702	      0.97119896	      1.23563600	     -0.58243668	      1.10730690	      1.20242858	     -0.44926355	      1.09408848	      1.13960379	     -0.46687062
      3.98333300	      0.21806082	     -4.54685011	     -3.32050923	      1.04576283	      1.00470653	     -0.30637873	     20.40395733	     10.45514814	      7.01315813	    -32.34533586	      0.79922875	      1.89820335	     -0.10123623	     -1.74829966	    -65.82575675	    -16.46868177	     -9.40792603	      7.03560069	     -0.11524181	    -39.37513668	    -10.36239940	     -9.60783133	     66.82499729	     62.54036879	    -31.82558101	    -18.91447455	      5.75711229	    116.42507925	     87.96787589	      0.00000000	      0.00000000	      0.00000000	      0.00000000	      0.00000000	      0.00000000	      0.00000000	      0.00000000	      1.05793484	      1.00911202	     -0.41929814	      1.04236962	      1.02412057	     -0.18755180	      0.88700010	      1.04323890	     -0.37176295	      0.87852174	      1.04362890	     -0.27180651	      1.01903333	      0.86134647	     -0.13450617	      1.12340224	      0.73528189	     -0.16509698	      1.08573892	      0.63161275	     -0.18161205	      0.99731456	      0.82982204	     -0.47642320	      1.05986063	      0.72825589	     -0.44545927	      0.98123404	      0.60733609	     -0.43762791	      1.16080312	      0.40735564	     -0.25034124	      1.10592038	      0.35594767	     -0.18711365	      1.11562029	      0.23147713	     -0.25367585	      0.90987095	      0.39390431	     -0.37542112	      0.80365470	      0.38605119	     -0.42357595	      0.73069462	      0.31594489	     -0.36030738	      0.97298582	      0.10199639	     -0.27470967	      1.18258373	      0.08017811	     -0.30183708	      1.16890314	      0.04585954	     -0.19699817	      0.57948444	      0.36947500	     -0.34981919	      0.62752227	      0.17103401	     -0.31198003	      0.58918318	      0.16555110	     -0.41384034	      1.03110491	      1.49644657	     -0.47669963	      1.00679430	      1.47492105	     -0.11640512	      1.08672122	      1.43777121	     -0.26730944	      0.97962238	      1.52296606	     -0.30719038	      0.96074739	      1.40648494	     -0.06800946	      0.94087131	      1.31827432	     -0.08778475	      0.85880580	      1.34249561	     -0.08537883	      0.79620689	      1.24772926	     -0.07291618	      0.79289474	      1.25194199	     -0.13910688	      0.99697336	      1.43272150	     -0.53394109	      0.92608463	      1.39408748	     -0.52050950	      0.97248485	      1.33356813	     -0.56495675	      0.88699403	      1.25069293	     -0.60603042	      0.84369009	      1.25305480	     -0.54522971	      0.84996333	      1.17367255	     -0.05008845	      0.91632400	      0.99736484	     -0.06707103	      0.85399426	      0.98288268	     -0.08547178	      0.96435966	      1.22842184	     -0.58238068	      1.10171858	      1.18748182	     -0.45221397	      1.08564522	      1.12564895	     -0.47199588
      3.99166700	      0.80101113	     -4.73316278	     -3.17899106	      1.04529505	      0.99751592	     -0.30623440	     19.59209089	     10.88626023	      7.13185053	    -34.35904519	      4.72311316	      2.99197117	     -0.47411186	     -1.73368279	    -69.32663390	    -14.72184523	    -10.04850566	      7.32885510	      0.34739224	    -38.34102568	    -10.72775844	     -9.09800605	     66.83853326	     63.18559785	    -32.61305239	    -18.77874217	      5.19972569	    114.73262525	     88.63740138	      0.00000000	      0.00000000	      0.00000000	      0.00000000	      0.00000000	      0.00000000	      0.00000000	      0.00000000	      1.05767729	      1.00177956	     -0.41956005	      1.04231460	      1.01672250	     -0.18714963	      0.88654285	      1.03369176	     -0.37131438	      0.87798944	      1.03444509	     -0.27055425	      1.01923381	      0.85242019	     -0.13419217	      1.12208650	      0.72685331	     -0.16638649	      1.08503726	      0.62320670	     -0.18272512	      1.00020345	      0.82150443	     -0.47636433	      1.06489484	      0.72184416	     -0.44668031	      0.98955887	      0.59943355	     -0.43711323	      1.15390174	      0.39881305	     -0.25287522	      1.09701404	      0.34996248	     -0.18949620	      1.10154763	      0.22500555	     -0.25533372	      0.91966164	      0.38960915	     -0.37659368	      0.81334636	      0.38527123	     -0.42445555	      0.73834674	      0.31736231	     -0.36168966	      0.95420281	      0.09646026	     -0.27520173	      1.16498844	      0.07949076	     -0.30212765	      1.15197808	      0.04577195	     -0.19738696	      0.58697081	      0.37442568	     -0.35177669	      0.63384560	      0.17561603	     -0.31426079	      0.59640244	      0.17067992	     -0.41637889	      1.02899361	      1.48932094	     -0.47666236	      1.00718823	      1.46663356	     -0.11518793	      1.08664478	      1.43034492	     -0.26737840	      0.97868990	      1.51592303	     -0.30624896	      0.96249829	      1.39628551	     -0.06658697	      0.94388670	      1.30766748	     -0.08660936	      0.86127339	      1.33041566	     -0.08178792	      0.80088280	      1.23490270	     -0.06882336	      0.79593274	      1.23933252	     -0.13495982	      0.99380463	      1.42535204	     -0.53354274	      0.92249459	      1.38788150	     -0.51897032	      0.96744498	      1.32632666	     -0.56335497	      0.88036595	      1.24604692	     -0.60413609	      0.83871505	      1.24840838	     -0.54258753	      0.85630561	      1.16168527	     -0.04746711	      0.92603902	      0.98731060	     -0.06688068	      0.86236209	      0.97200878	     -0.08364062	      0.95727978	      1.22064511	     -0.58223779	      1.09558389	      1.17178964	     -0.45570154	      1.07665842	      1.11098642	     -0.47795352
